# xmcd
#
# Track frame offsets: 
#        150
#        21370
#        41242
#        63137
#        84382
#        104270
#
# Disc length: 2067 seconds
#
# Revision: 0
# Processed by: cddbd v1.5.1PL2 Copyright (c) Steve Scherf et al.
# Submitted via: ExactAudioCopy v0.95a5
#
DISCID=45081106
DTITLE=day after tomorrow - Dear Friends
DYEAR=1900
DGENRE=JPop
TTITLE0=Dear Friends
TTITLE1=It's My Way
TTITLE2=Starry Heavens(orchestra
TTITLE3=Dear Friends(instru
TTITLE4=It's My Way(instru
TTITLE5=Starry Heavens(instru
EXTD=
EXTT0=
EXTT1=
EXTT2=
EXTT3=
EXTT4=
EXTT5=
PLAYORDER=
